<svg width="25" height="44" viewBox="0 0 25 44" fill="none" xmlns="http://www.w3.org/2000/svg">
<mask id="path-1-outside-1_64_1296" maskUnits="userSpaceOnUse" x="15" y="0" width="10" height="44" fill="black">
<rect fill="white" x="15" width="10" height="44"/>
<path d="M24 43H16V16H24V43ZM24 9H16V1H24V9Z"/>
</mask>
<path d="M24 43V44H25V43H24ZM16 43H15V44H16V43ZM16 16V15H15V16H16ZM24 16H25V15H24V16ZM24 9V10H25V9H24ZM16 9H15V10H16V9ZM16 1V0H15V1H16ZM24 1H25V0H24V1ZM24 43V42H16V43V44H24V43ZM16 43H17V16H16H15V43H16ZM16 16V17H24V16V15H16V16ZM24 16H23V43H24H25V16H24ZM24 9V8H16V9V10H24V9ZM16 9H17V1H16H15V9H16ZM16 1V2H24V1V0H16V1ZM24 1H23V9H24H25V1H24Z" fill="#C778DD" mask="url(#path-1-outside-1_64_1296)"/>
<mask id="path-3-inside-2_64_1296" fill="white">
<path d="M10 34H25V44H0V0H10V34Z"/>
</mask>
<path d="M10 34H9V35H10V34ZM25 34H26V33H25V34ZM25 44V45H26V44H25ZM0 44H-1V45H0V44ZM0 0V-1H-1V0H0ZM10 0H11V-1H10V0ZM10 34V35H25V34V33H10V34ZM25 34H24V44H25H26V34H25ZM25 44V43H0V44V45H25V44ZM0 44H1V0H0H-1V44H0ZM0 0V1H10V0V-1H0V0ZM10 0H9V34H10H11V0H10Z" fill="#C778DD" mask="url(#path-3-inside-2_64_1296)"/>
</svg>
