<svg width="113" height="200" viewBox="0 0 113 200" fill="none" xmlns="http://www.w3.org/2000/svg">
<mask id="path-1-outside-1_1515_1345" maskUnits="userSpaceOnUse" x="65" y="0" width="48" height="200" fill="black">
<rect fill="white" x="65" width="48" height="200"/>
<path d="M112 199H66V67H112V199ZM112 47H66V1H112V47Z"/>
</mask>
<path d="M112 199V200H113V199H112ZM66 199H65V200H66V199ZM66 67V66H65V67H66ZM112 67H113V66H112V67ZM112 47V48H113V47H112ZM66 47H65V48H66V47ZM66 1V0H65V1H66ZM112 1H113V0H112V1ZM112 199V198H66V199V200H112V199ZM66 199H67V67H66H65V199H66ZM66 67V68H112V67V66H66V67ZM112 67H111V199H112H113V67H112ZM112 47V46H66V47V48H112V47ZM66 47H67V1H66H65V47H66ZM66 1V2H112V1V0H66V1ZM112 1H111V47H112H113V1H112Z" fill="#C778DD" mask="url(#path-1-outside-1_1515_1345)"/>
<mask id="path-3-inside-2_1515_1345" fill="white">
<path d="M46 154H113V200H0V0H46V154Z"/>
</mask>
<path d="M46 154H45V155H46V154ZM113 154H114V153H113V154ZM113 200V201H114V200H113ZM0 200H-1V201H0V200ZM0 0V-1H-1V0H0ZM46 0H47V-1H46V0ZM46 154V155H113V154V153H46V154ZM113 154H112V200H113H114V154H113ZM113 200V199H0V200V201H113V200ZM0 200H1V0H0H-1V200H0ZM0 0V1H46V0V-1H0V0ZM46 0H45V154H46H47V0H46Z" fill="#C778DD" mask="url(#path-3-inside-2_1515_1345)"/>
</svg>
