<svg width="114" height="200" viewBox="0 0 114 200" fill="none" xmlns="http://www.w3.org/2000/svg">
<mask id="path-1-outside-1_1515_1345" maskUnits="userSpaceOnUse" x="65" y="0" width="48" height="200" fill="black">
<rect fill="white" x="65" width="48" height="200"/>
<path d="M112 199H66.001V77.1934H112V199ZM112 47H66V1H112V47Z"/>
</mask>
<path d="M112 199V200H113V199H112ZM66.001 199H65.001V200H66.001V199ZM66.001 77.1934V76.1934H65.001V77.1934H66.001ZM112 77.1934H113V76.1934H112V77.1934ZM112 47V48H113V47H112ZM66 47H65V48H66V47ZM66 1V0H65V1H66ZM112 1H113V0H112V1ZM112 199V198H66.001V199V200H112V199ZM66.001 199H67.001V77.1934H66.001H65.001V199H66.001ZM66.001 77.1934V78.1934H112V77.1934V76.1934H66.001V77.1934ZM112 77.1934H111V199H112H113V77.1934H112ZM112 47V46H66V47V48H112V47ZM66 47H67V1H66H65V47H66ZM66 1V2H112V1V0H66V1ZM112 1H111V47H112H113V1H112Z" fill="#C778DD" mask="url(#path-1-outside-1_1515_1345)"/>
<mask id="path-3-inside-2_1515_1345" fill="white">
<path d="M46 153.772H113.24V199.772H0V0H46V153.772Z"/>
</mask>
<path d="M46 153.772H45V154.772H46V153.772ZM113.24 153.772H114.24V152.772H113.24V153.772ZM113.24 199.772V200.772H114.24V199.772H113.24ZM0 199.772H-1V200.772H0V199.772ZM0 0V-1H-1V0H0ZM46 0H47V-1H46V0ZM46 153.772V154.772H113.24V153.772V152.772H46V153.772ZM113.24 153.772H112.24V199.772H113.24H114.24V153.772H113.24ZM113.24 199.772V198.772H0V199.772V200.772H113.24V199.772ZM0 199.772H1V0H0H-1V199.772H0ZM0 0V1H46V0V-1H0V0ZM46 0H45V153.772H46H47V0H46Z" fill="#C778DD" mask="url(#path-3-inside-2_1515_1345)"/>
</svg>
