<svg width="87" height="21" viewBox="0 0 87 21" fill="none" xmlns="http://www.w3.org/2000/svg">
<path d="M10 13.2275H6.7998V7.09082H10V13.2275ZM10 5.72754H6.7998V3H10V5.72754Z" fill="white"/>
<path d="M4 14.5908H10V18H0V3H4V14.5908Z" fill="white"/>
<path d="M20.488 16V4.912H23.112V13.928H27.92L27.648 16H20.488ZM34.9058 7.504V14.272H37.0658V16H29.9698V14.272H32.3778V9.232H30.0498V7.504H34.9058ZM33.3778 3.056C33.8151 3.056 34.1724 3.192 34.4498 3.464C34.7271 3.736 34.8658 4.07467 34.8658 4.48C34.8658 4.88533 34.7271 5.22667 34.4498 5.504C34.1724 5.776 33.8151 5.912 33.3778 5.912C32.9351 5.912 32.5724 5.776 32.2898 5.504C32.0124 5.22667 31.8738 4.88533 31.8738 4.48C31.8738 4.07467 32.0124 3.736 32.2898 3.464C32.5724 3.192 32.9351 3.056 33.3778 3.056ZM43.7395 4.128V13.328C43.7395 13.6693 43.8355 13.9147 44.0275 14.064C44.2248 14.208 44.4942 14.28 44.8355 14.28C45.0542 14.28 45.2648 14.256 45.4675 14.208C45.6702 14.1547 45.8595 14.0933 46.0355 14.024L46.6435 15.712C46.3555 15.8613 46.0088 15.992 45.6035 16.104C45.1982 16.216 44.7262 16.272 44.1875 16.272C43.1635 16.272 42.4115 15.9787 41.9315 15.392C41.4515 14.8 41.2115 14.008 41.2115 13.016V5.856H38.7075V4.128H43.7395ZM51.4293 7.504V13.32C51.4293 13.7307 51.5039 14.0133 51.6533 14.168C51.8079 14.3227 52.0213 14.4 52.2933 14.4C52.5546 14.4 52.8159 14.3173 53.0773 14.152C53.3386 13.9867 53.5573 13.7627 53.7333 13.48V7.504H56.2613V16H54.0533L53.9413 15.008C53.6533 15.424 53.2746 15.7387 52.8053 15.952C52.3359 16.1653 51.8453 16.272 51.3333 16.272C50.5119 16.272 49.9013 16.0347 49.5013 15.56C49.1013 15.08 48.9013 14.4373 48.9013 13.632V7.504H51.4293ZM61.903 14.464C62.3243 14.464 62.663 14.3973 62.919 14.264C63.1803 14.1307 63.311 13.9307 63.311 13.664C63.311 13.4827 63.2603 13.3307 63.159 13.208C63.0577 13.0853 62.863 12.968 62.575 12.856C62.287 12.744 61.8603 12.6107 61.295 12.456C60.7777 12.3173 60.319 12.1413 59.919 11.928C59.5243 11.7147 59.215 11.44 58.991 11.104C58.7723 10.768 58.663 10.3493 58.663 9.848C58.663 9.34133 58.8043 8.89067 59.087 8.496C59.3697 8.10133 59.7857 7.792 60.335 7.568C60.8843 7.33867 61.5563 7.224 62.351 7.224C63.1083 7.224 63.767 7.32267 64.327 7.52C64.8923 7.712 65.3803 7.95733 65.791 8.256L64.783 9.744C64.431 9.52533 64.0523 9.352 63.647 9.224C63.2417 9.09067 62.8337 9.024 62.423 9.024C62.0123 9.024 61.7057 9.08 61.503 9.192C61.3057 9.29867 61.207 9.46133 61.207 9.68C61.207 9.824 61.2577 9.94933 61.359 10.056C61.4657 10.1573 61.663 10.264 61.951 10.376C62.239 10.4827 62.6603 10.616 63.215 10.776C63.7643 10.9307 64.2417 11.1093 64.647 11.312C65.0577 11.5147 65.375 11.7867 65.599 12.128C65.823 12.464 65.935 12.9093 65.935 13.464C65.935 14.0827 65.751 14.6027 65.383 15.024C65.015 15.44 64.527 15.752 63.919 15.96C63.311 16.168 62.6443 16.272 61.919 16.272C61.0977 16.272 60.3723 16.1547 59.743 15.92C59.1137 15.6853 58.5777 15.376 58.135 14.992L59.407 13.568C59.7377 13.824 60.111 14.0373 60.527 14.208C60.9483 14.3787 61.407 14.464 61.903 14.464ZM73.2808 7.504V14.272H75.4408V16H68.3448V14.272H70.7528V9.232H68.4248V7.504H73.2808ZM71.7528 3.056C72.1901 3.056 72.5474 3.192 72.8248 3.464C73.1021 3.736 73.2408 4.07467 73.2408 4.48C73.2408 4.88533 73.1021 5.22667 72.8248 5.504C72.5474 5.776 72.1901 5.912 71.7528 5.912C71.3101 5.912 70.9474 5.776 70.6648 5.504C70.3874 5.22667 70.2488 4.88533 70.2488 4.48C70.2488 4.07467 70.3874 3.736 70.6648 3.464C70.9474 3.192 71.3101 3.056 71.7528 3.056ZM84.8345 13.552C84.8345 13.872 84.8772 14.104 84.9625 14.248C85.0532 14.392 85.1972 14.5013 85.3945 14.576L84.8745 16.24C84.3732 16.192 83.9492 16.0827 83.6025 15.912C83.2612 15.736 82.9918 15.472 82.7945 15.12C82.4692 15.5093 82.0532 15.8 81.5465 15.992C81.0398 16.1787 80.5225 16.272 79.9945 16.272C79.1198 16.272 78.4212 16.024 77.8985 15.528C77.3812 15.0267 77.1225 14.384 77.1225 13.6C77.1225 12.6773 77.4825 11.9653 78.2025 11.464C78.9278 10.9627 79.9465 10.712 81.2585 10.712H82.4025V10.392C82.4025 9.94933 82.2585 9.62133 81.9705 9.408C81.6878 9.19467 81.2718 9.088 80.7225 9.088C80.4505 9.088 80.1012 9.128 79.6745 9.208C79.2478 9.28267 78.8212 9.392 78.3945 9.536L77.8105 7.856C78.3598 7.648 78.9305 7.49067 79.5225 7.384C80.1198 7.27733 80.6532 7.224 81.1225 7.224C82.3865 7.224 83.3198 7.48267 83.9225 8C84.5305 8.512 84.8345 9.25333 84.8345 10.224V13.552ZM80.8665 14.464C81.1385 14.464 81.4238 14.384 81.7225 14.224C82.0212 14.0587 82.2478 13.8267 82.4025 13.528V12.152H81.7785C81.0745 12.152 80.5572 12.2613 80.2265 12.48C79.8958 12.6933 79.7305 13.008 79.7305 13.424C79.7305 13.7493 79.8292 14.0053 80.0265 14.192C80.2292 14.3733 80.5092 14.464 80.8665 14.464Z" fill="white"/>
</svg>
