<svg width="42" height="120" viewBox="0 0 42 120" fill="none" xmlns="http://www.w3.org/2000/svg">
<circle cx="12" cy="12" r="2" transform="rotate(90 12 12)" fill="#ABB2BF"/>
<circle cx="12" cy="35.75" r="2" transform="rotate(90 12 35.75)" fill="#ABB2BF"/>
<circle cx="12" cy="59.5" r="2" transform="rotate(90 12 59.5)" fill="#ABB2BF"/>
<circle cx="12" cy="83.25" r="2" transform="rotate(90 12 83.25)" fill="#ABB2BF"/>
<circle cx="12" cy="107" r="2" transform="rotate(90 12 107)" fill="#ABB2BF"/>
<circle cx="30" cy="12" r="2" transform="rotate(90 30 12)" fill="#ABB2BF"/>
<circle cx="30" cy="35.75" r="2" transform="rotate(90 30 35.75)" fill="#ABB2BF"/>
<circle cx="30" cy="59.5" r="2" transform="rotate(90 30 59.5)" fill="#ABB2BF"/>
<circle cx="30" cy="83.25" r="2" transform="rotate(90 30 83.25)" fill="#ABB2BF"/>
<circle cx="30" cy="107" r="2" transform="rotate(90 30 107)" fill="#ABB2BF"/>
</svg>
